<svg width="38" height="40" viewBox="0 0 38 40" fill="none" xmlns="http://www.w3.org/2000/svg">
<path opacity="0.5" d="M22.3499 20.0003L37.0598 4.4243C38.0171 3.41115 38.0171 1.77302 37.0598 0.759865C36.103 -0.253288 34.5559 -0.253288 33.599 0.759865L18.8887 16.3359L4.17876 0.759865C3.22146 -0.253288 1.67482 -0.253288 0.717972 0.759865C-0.239324 1.77302 -0.239324 3.41115 0.717972 4.4243L15.4279 20.0003L0.717972 35.5763C-0.239324 36.5894 -0.239324 38.2276 0.717972 39.2407C1.19483 39.7461 1.82182 40 2.44836 40C3.07491 40 3.70145 39.7461 4.17876 39.2407L18.8887 23.6647L33.599 39.2407C34.0763 39.7461 34.7029 40 35.3294 40C35.956 40 36.5825 39.7461 37.0598 39.2407C38.0171 38.2276 38.0171 36.5894 37.0598 35.5763L22.3499 20.0003Z" fill="#382C21"/>
</svg>
