<svg width="17" height="18" viewBox="0 0 17 18" fill="none" xmlns="http://www.w3.org/2000/svg">
<path opacity="0.5" d="M10.0575 9.00013L16.6769 1.99094C17.1077 1.53502 17.1077 0.797859 16.6769 0.341939C16.2463 -0.11398 15.5501 -0.11398 15.1196 0.341939L8.4999 7.35114L1.88044 0.341939C1.44966 -0.11398 0.753669 -0.11398 0.323087 0.341939C-0.107696 0.797859 -0.107696 1.53502 0.323087 1.99094L6.94255 9.00013L0.323087 16.0093C-0.107696 16.4652 -0.107696 17.2024 0.323087 17.6583C0.537672 17.8858 0.819819 18 1.10176 18C1.38371 18 1.66565 17.8858 1.88044 17.6583L8.4999 10.6491L15.1196 17.6583C15.3343 17.8858 15.6163 18 15.8982 18C16.1802 18 16.4621 17.8858 16.6769 17.6583C17.1077 17.2024 17.1077 16.4652 16.6769 16.0093L10.0575 9.00013Z" fill="#382C21"/>
</svg>
