<svg width="42" height="42" viewBox="0 0 42 42" fill="none" xmlns="http://www.w3.org/2000/svg">
<path d="M38.3086 5.00391H13.5352C11.4991 5.00391 9.84375 6.66012 9.84375 8.69531C9.84375 10.7313 11.4991 12.3867 13.5352 12.3867H38.3086C40.3438 12.3867 42 10.7313 42 8.69531C42 6.66012 40.3438 5.00391 38.3086 5.00391Z" fill="#C3B8AC"/>
<path d="M38.3086 17.3086H13.5352C11.4991 17.3086 9.84375 18.9648 9.84375 21C9.84375 23.036 11.4991 24.6914 13.5352 24.6914H38.3086C40.3438 24.6914 42 23.036 42 21C42 18.9648 40.3438 17.3086 38.3086 17.3086Z" fill="#C3B8AC"/>
<path d="M38.3086 29.6133H13.5352C11.4991 29.6133 9.84375 31.2695 9.84375 33.3047C9.84375 35.3407 11.4991 36.9961 13.5352 36.9961H38.3086C40.3438 36.9961 42 35.3407 42 33.3047C42 31.2695 40.3438 29.6133 38.3086 29.6133Z" fill="#C3B8AC"/>
<path d="M3.69141 5.00391C1.65539 5.00391 0 6.66012 0 8.69531C0 10.7313 1.65539 12.3867 3.69141 12.3867C5.7266 12.3867 7.38281 10.7313 7.38281 8.69531C7.38281 6.66012 5.7266 5.00391 3.69141 5.00391Z" fill="#C3B8AC"/>
<path d="M3.69141 17.3086C1.65539 17.3086 0 18.9648 0 21C0 23.036 1.65539 24.6914 3.69141 24.6914C5.7266 24.6914 7.38281 23.036 7.38281 21C7.38281 18.9648 5.7266 17.3086 3.69141 17.3086Z" fill="#C3B8AC"/>
<path d="M3.69141 29.6133C1.65539 29.6133 0 31.2695 0 33.3047C0 35.3407 1.65539 36.9961 3.69141 36.9961C5.7266 36.9961 7.38281 35.3407 7.38281 33.3047C7.38281 31.2695 5.7266 29.6133 3.69141 29.6133Z" fill="#C3B8AC"/>
</svg>
