<svg width="65" height="56" viewBox="0 0 65 56" fill="none" xmlns="http://www.w3.org/2000/svg">
<path d="M25.5555 55.4344C17.2222 55.4344 8.94444 55.4344 0.611108 55.4344C0.499997 55.2677 0.388882 55.1566 0.277771 54.99C0.999993 54.5456 1.61111 53.8791 2.38888 53.6569C5.88888 52.7126 7.22222 50.2686 7.22222 46.8248C7.22222 34.3271 7.33333 21.8849 7.27777 9.38718C7.27777 4.49918 6.44444 3.55491 1.66666 1.77745C1.22222 1.61082 0.888885 1.222 0.611108 0.444365C8.33333 0.444365 16.0556 0.444365 24.5 0.444365C23.6111 1.222 23.1667 1.833 22.6111 2.11073C19.1111 3.49936 17.7222 6.05445 17.7778 9.6649C17.8333 14.1641 17.7778 18.6633 17.7778 23.3291C27.5555 23.3291 37.1667 23.3291 46.6667 23.3291C46.6667 17.7745 46.9444 12.3311 46.5 6.94318C46.3889 5.38791 44.3889 3.94372 43.0555 2.61063C42.4444 1.94409 41.4444 1.66636 40.6111 1.222C40.6667 0.999816 40.7222 0.777636 40.7778 0.555454C48.5555 0.555454 56.2778 0.555454 64.8333 0.555454C63.7778 1.27754 63.2778 1.833 62.6667 2.05518C58.3889 3.72154 57.2222 5.33236 57.2222 9.94263C57.2778 19.8297 57.2778 29.7168 57.3333 39.6595C57.3333 42.0479 57.2778 44.4919 57.3889 46.8804C57.5555 51.0463 58.5555 52.3238 62.5 53.768C63.1667 53.9902 63.7778 54.4345 64.4444 54.7678C64.3889 54.99 64.2778 55.2677 64.2222 55.4899C55.8333 55.4899 47.3889 55.4899 39 55.4899C38.9444 55.2677 38.8889 55.0456 38.8333 54.8234C39.5 54.5456 40.2222 54.2679 40.8889 54.0457C43.7778 53.0459 45.6111 51.0463 46.7222 48.1579C47.2222 46.9359 48.3333 45.8806 49.2222 44.8252C49.4444 44.5475 49.8889 44.4919 50.2222 44.3253C53.2222 42.6589 54.5555 40.2705 53.8333 37.882C53.1111 35.4936 50.8333 34.4937 47 34.8825C47.5556 31.8831 45.5555 30.7166 43.2778 29.9945C36 27.7727 28.7222 27.7727 21.3889 29.939C18.6667 30.7722 17.2778 32.3274 17.5556 35.438C17.8333 38.493 17.5555 41.548 17.6111 44.603C17.6667 50.0464 19.4444 52.546 24.5555 54.2679C24.9444 54.379 25.3333 54.6567 25.7222 54.8234C25.6111 54.99 25.5555 55.2122 25.5555 55.4344Z" fill="#382C21"/>
<path d="M19.9444 34.7159C25.2222 30.1056 39.2778 30.1612 44.3333 34.6604C39.8889 37.882 26 37.9375 19.9444 34.7159Z" fill="#382C21"/>
<path d="M47.1667 43.2144C47.5556 41.1592 45.3889 38.4375 48.6111 37.3266C49.3334 37.0488 51.3334 38.0486 51.3889 38.6596C51.8889 41.6591 49.0556 41.9924 47.1667 43.2144Z" fill="#382C21"/>
</svg>
